<svg xmlns="http://www.w3.org/2000/svg" width="512" height="512" viewBox="0 0 512 512" fill="none">
  <!-- Kugou-like peer mark: teal disc + white dog silhouette (in-app identity). -->
  <rect width="512" height="512" rx="112" fill="#00A9FF"/>
  <circle cx="256" cy="256" r="168" fill="#0084D6"/>
  <path fill="#FFFFFF" d="M286 148c28 2 52 22 60 48 6 18 4 38-4 54 18 10 30 30 30 52 0 44-40 78-88 78h-56c-48 0-88-34-88-78 0-22 12-42 30-52-8-16-10-36-4-54 8-26 32-46 60-48 8-22 28-38 52-38s44 16 52 38zm-78 54c-14 4-24 20-20 36 4 14 18 24 34 20 14-4 24-20 20-36-4-14-18-24-34-20zm104 0c-16-4-30 6-34 20-4 16 6 32 20 36 16 4 30-6 34-20 4-16-6-32-20-36zM214 292c8 22 28 36 52 36s44-14 52-36c2-6-2-12-8-12h-88c-6 0-10 6-8 12z"/>
  <circle cx="214" cy="220" r="10" fill="#0084D6"/>
  <circle cx="298" cy="220" r="10" fill="#0084D6"/>
</svg>
