<svg xmlns="http://www.w3.org/2000/svg" width="512" height="512" viewBox="0 0 512 512" fill="none">
  <!-- Kuwo-like peer mark: amber disc + simple note (in-app identity). -->
  <rect width="512" height="512" rx="112" fill="#FFE14D"/>
  <circle cx="256" cy="256" r="168" fill="#FFC107"/>
  <circle cx="220" cy="280" r="54" fill="#1A1A1A"/>
  <circle cx="220" cy="280" r="28" fill="#FFE14D"/>
  <path fill="#1A1A1A" d="M248 140h36c8 0 14 6 14 14v120c0 8-6 14-14 14h-22c-8 0-14-6-14-14V168c0-10-8-18-18-18h-10c-8 0-14-6-14-14s6-14 14-14h28z"/>
  <circle cx="320" cy="300" r="40" fill="#1A1A1A"/>
  <circle cx="320" cy="300" r="20" fill="#FFE14D"/>
</svg>
