<svg width="279" height="59" viewBox="0 0 279 59" fill="none" xmlns="http://www.w3.org/2000/svg">
  <path d="M79.5466 21.006L76.3574 9.84749H69.3269L72.5194 21.006H79.5466Z" fill="white" />
  <path d="M79.377 34.5593L76.1879 23.4008H69.1573L72.3499 34.5593H79.377Z" fill="white" />
  <path d="M224.855 12.7085H206.676V9.73679H198.973V12.7085H180.269V17.6682H224.855V12.7085Z"
    fill="white" />
  <path d="M115.12 20.3743H82.7046V25.2787H115.12V20.3743Z" fill="white" />
  <path
    d="M141.638 21.52V19.3835C141.638 18.4489 141.266 17.5526 140.605 16.8918C139.945 16.2309 139.048 15.8596 138.114 15.8596H123.404V21.3198H135.087V21.52C135.087 27.8085 132.374 43.1294 124.315 47.7094L124.194 47.775L127.183 53.6079L127.311 53.5389C132.274 50.8192 136.239 45.4211 138.787 37.9246C140.892 31.719 141.638 25.2096 141.638 21.52Z"
    fill="white" />
  <path
    d="M276.441 33.4173V27.895H259.456L259.436 20.6297H253.137L253.161 27.895H240.756C240.704 27.8947 240.652 27.8835 240.604 27.8621C240.556 27.8407 240.513 27.8095 240.477 27.7706C240.442 27.7317 240.415 27.6858 240.398 27.6359C240.382 27.586 240.375 27.5332 240.38 27.4808L241.129 18.9178C241.135 18.8282 241.173 18.7436 241.237 18.6801C241.3 18.6166 241.385 18.5784 241.474 18.5727L276.441 17.2784V11.7561L238.406 13.1608C237.546 13.1922 236.728 13.537 236.105 14.1302C235.482 14.7233 235.097 15.5239 235.024 16.381L233.843 30.1384C233.807 30.5554 233.859 30.9752 233.994 31.3713C234.129 31.7674 234.344 32.1312 234.627 32.4394C234.91 32.7477 235.254 32.9939 235.637 33.1622C236.021 33.3305 236.434 33.4174 236.853 33.4173H253.178L253.226 49.6666C253.227 49.7331 253.214 49.799 253.189 49.8605C253.164 49.922 253.127 49.978 253.08 50.0252C253.033 50.0723 252.978 50.1097 252.916 50.1353C252.855 50.1608 252.789 50.174 252.723 50.174H246.01V55.3511H256.001C256.466 55.3516 256.926 55.2602 257.355 55.0822C257.784 54.9043 258.174 54.6432 258.502 54.3141C258.829 53.985 259.089 53.5943 259.265 53.1646C259.442 52.7348 259.531 52.2745 259.529 51.8099L259.477 33.4173H276.441Z"
    fill="white" />
  <path
    d="M219.332 33.5551H185.788C184.853 33.5551 183.957 33.9264 183.296 34.5872C182.635 35.2481 182.264 36.1444 182.264 37.079V52.0686C182.264 53.0032 182.635 53.8995 183.296 54.5604C183.957 55.2212 184.853 55.5925 185.788 55.5925H219.332C220.267 55.5925 221.164 55.2213 221.825 54.5606C222.487 53.8998 222.859 53.0035 222.86 52.0686V37.079C222.859 36.1441 222.487 35.2478 221.825 34.587C221.164 33.9263 220.267 33.5551 219.332 33.5551ZM188.773 38.4423H216.35C216.465 38.4423 216.574 38.4878 216.655 38.5687C216.736 38.6496 216.782 38.7593 216.782 38.8738V42.1319H188.342V38.8738C188.342 38.7593 188.387 38.6496 188.468 38.5687C188.549 38.4878 188.659 38.4423 188.773 38.4423ZM216.35 50.7053H188.773C188.659 50.7053 188.549 50.6598 188.468 50.5789C188.387 50.498 188.342 50.3883 188.342 50.2738V47.0191H216.782V50.2738C216.782 50.3883 216.736 50.498 216.655 50.5789C216.574 50.6598 216.465 50.7053 216.35 50.7053Z"
    fill="white" />
  <path
    d="M145.799 49.67C145.798 49.8033 145.745 49.931 145.651 50.0253C145.556 50.1196 145.429 50.173 145.295 50.1739H138.613V55.351H148.571C149.506 55.351 150.402 54.9799 151.064 54.3191C151.725 53.6583 152.097 52.762 152.098 51.8271V9.51259H145.799V49.67Z"
    fill="white" />
  <path
    d="M113.298 34.5111V31.8155C113.298 30.8806 112.927 29.9839 112.266 29.3225C111.605 28.6611 110.709 28.2891 109.774 28.2881H82.6146V33.3721H106.495C106.629 33.3721 106.757 33.4252 106.851 33.5197C106.946 33.6142 106.999 33.7424 106.999 33.876V36.9823C106.998 43.3002 108 49.5782 109.967 55.582H116.639V55.5579C114.432 48.76 113.305 41.6582 113.298 34.5111Z"
    fill="white" />
  <path
    d="M89.0034 17.796H116.629V17.7891V12.7121V12.7086H89.0034V9.5195H82.7046V17.796H84.2128H89.0034Z"
    fill="white" />
  <path
    d="M68.318 55.5926H76.0838C77.9475 50.7606 80.0667 44.02 80.6396 37.3H73.4158C72.7083 44.2547 70.099 51.3819 68.318 55.5926Z"
    fill="white" />
  <path
    d="M162.143 23.0837V22.9732L172.069 19.653L169.819 13.575L158.201 17.5372C157.505 17.7749 156.9 18.2244 156.472 18.8229C156.043 19.4214 155.813 20.1388 155.813 20.8748V23.0699C155.813 29.0719 155.768 45.0244 169.273 53.6392L172.676 48.3033C162.105 41.5557 162.132 28.6094 162.143 23.0837Z"
    fill="white" />
  <path
    d="M218.914 19.7045H211.956C211.908 21.6736 211.703 23.6357 211.341 25.5719H193.925C193.561 23.6362 193.355 21.6738 193.311 19.7045H186.357C186.392 21.6697 186.563 23.6301 186.867 25.5719H179.019V30.5247H226.1V25.565H218.4C218.705 23.6256 218.877 21.6675 218.914 19.7045Z"
    fill="white" />
  <path
    d="M243.761 35.9955H237.438V36.1404C237.438 38.339 237.487 44.1754 232.23 51.7098L237.425 55.3338C243.834 46.1496 243.789 38.5875 243.775 36.1025L243.761 35.9955Z"
    fill="white" />
  <path
    d="M273.559 36.1439V35.9955H267.191V36.1094C267.191 38.591 267.136 46.1427 273.096 55.3442L278.439 51.8928C273.514 44.2755 273.545 38.3666 273.559 36.1439Z"
    fill="white" />
  <g clip-path="url(#clip0_3409_38666)">
    <path
      d="M57.4495 38.0618H46.4532C46.3514 37.2641 46.1982 36.4738 45.9945 35.6959L40.4963 14.5835H53.9473L50.3335 0.562393H22.4398L28.0185 21.9294C26.534 21.9595 25.0586 22.1679 23.6237 22.5504C20.5394 23.3533 17.7171 24.9471 15.4346 27.1748C13.1521 29.4025 11.4882 32.1873 10.6066 35.2551H21.8199L0.124786 40.9244H9.87519C9.92022 42.3019 10.1177 43.6701 10.4641 45.004C11.5172 49.049 13.914 52.6141 17.2598 55.1123C20.6055 57.6105 24.7008 58.8929 28.8712 58.7483C33.0416 58.6037 37.0386 57.0408 40.2039 54.3168C43.3693 51.5929 45.5143 47.8703 46.2858 43.7621H35.7482L57.4495 38.0618Z"
      fill="url(#paint0_linear_3409_38666)" />
  </g>
  <defs>
    <linearGradient id="paint0_linear_3409_38666" x1="48.2136" y1="2.02163" x2="20.547" y2="55.185"
      gradientUnits="userSpaceOnUse">
      <stop stop-color="#FCFB47" />
      <stop offset="0.1" stop-color="#D2FB46" />
      <stop offset="0.29" stop-color="#89FC44" />
      <stop offset="0.45" stop-color="#54FD42" />
      <stop offset="0.57" stop-color="#33FD41" />
      <stop offset="0.63" stop-color="#27FD41" />
      <stop offset="0.75" stop-color="#26FD78" />
      <stop offset="0.86" stop-color="#25FDA7" />
      <stop offset="0.95" stop-color="#24FDC4" />
      <stop offset="1" stop-color="#24FDCF" />
    </linearGradient>
    <clipPath id="clip0_3409_38666">
      <rect width="57.3247" height="58.1771" fill="white" transform="translate(0.124786 0.562393)" />
    </clipPath>
  </defs>
</svg>
  