<svg width="512" height="512" viewBox="0 0 512 512" fill="none" xmlns="http://www.w3.org/2000/svg">
  <!-- Auralis: warm gradient + clean note (flat, normal app icon) -->
  <defs>
    <linearGradient id="bg" x1="72" y1="40" x2="440" y2="480" gradientUnits="userSpaceOnUse">
      <stop offset="0" stop-color="#FF8B63"/>
      <stop offset="0.55" stop-color="#FFA85A"/>
      <stop offset="1" stop-color="#FFC56E"/>
    </linearGradient>
  </defs>

  <rect x="32" y="32" width="448" height="448" rx="108" fill="url(#bg)"/>

  <!-- Flat eighth note with soft depth via slight offset only -->
  <g transform="translate(8 10)" opacity="0.14">
    <ellipse cx="214" cy="348" rx="72" ry="52" transform="rotate(-20 214 348)" fill="#000"/>
    <rect x="268" y="140" width="36" height="214" rx="18" fill="#000"/>
    <path d="M304 140 C352 156 384 192 384 236 C384 264 362 280 338 268 C318 258 304 236 304 210 V140 Z" fill="#000"/>
  </g>

  <g>
    <ellipse cx="214" cy="348" rx="72" ry="52" transform="rotate(-20 214 348)" fill="#FFF8F1"/>
    <rect x="268" y="140" width="36" height="214" rx="18" fill="#FFF8F1"/>
    <path d="M304 140 C352 156 384 192 384 236 C384 264 362 280 338 268 C318 258 304 236 304 210 V140 Z" fill="#FFF8F1"/>
  </g>
</svg>
