<svg xmlns="http://www.w3.org/2000/svg" viewBox="0 0 100 100" fill="none">
  <!-- Lyra v01 Stage Halo Note - single note + stage arc -->
  <defs>
    <linearGradient id="lyraBg" x1="14" y1="8" x2="86" y2="94" gradientUnits="userSpaceOnUse">
      <stop offset="0" stop-color="#FF8B63"/>
      <stop offset="0.55" stop-color="#FFA85A"/>
      <stop offset="1" stop-color="#FFC56E"/>
    </linearGradient>
  </defs>
  <rect x="6" y="6" width="88" height="88" rx="22" fill="url(#lyraBg)"/>
  <!-- Stage halo -->
  <path d="M22 62c8-22 22-34 28-34s20 12 28 34" stroke="#FFF8F1" stroke-opacity="0.28" stroke-width="5.5" stroke-linecap="round"/>
  <path d="M28 64c6-16 16-24 22-24s16 8 22 24" stroke="#FFF8F1" stroke-opacity="0.16" stroke-width="3.5" stroke-linecap="round"/>
  <!-- Soft depth -->
  <g transform="translate(1.2 1.6)" opacity="0.12">
    <ellipse cx="42" cy="66" rx="11.5" ry="8.5" transform="rotate(-22 42 66)" fill="#000"/>
    <rect x="50.5" y="28" width="6.2" height="38" rx="3.1" fill="#000"/>
    <path d="M56.7 28c8.2 2.4 13.5 8.2 13.5 15.2 0 4.6-3.6 7.2-7.4 5.4-3.2-1.5-5.4-5-5.4-9.2V28Z" fill="#000"/>
  </g>
  <!-- Note -->
  <g fill="#FFF8F1">
    <ellipse cx="42" cy="66" rx="11.5" ry="8.5" transform="rotate(-22 42 66)"/>
    <rect x="50.5" y="28" width="6.2" height="38" rx="3.1"/>
    <path d="M56.7 28c8.2 2.4 13.5 8.2 13.5 15.2 0 4.6-3.6 7.2-7.4 5.4-3.2-1.5-5.4-5-5.4-9.2V28Z"/>
  </g>
</svg>
