<svg xmlns="http://www.w3.org/2000/svg" viewBox="0 0 100 100" fill="none">
  <!-- Lyra v04 Lyric Spotlight - soft spotlight + centered note -->
  <defs>
    <linearGradient id="lyraBg" x1="14" y1="8" x2="86" y2="94" gradientUnits="userSpaceOnUse">
      <stop offset="0" stop-color="#FF8B63"/>
      <stop offset="0.55" stop-color="#FFA85A"/>
      <stop offset="1" stop-color="#FFC56E"/>
    </linearGradient>
    <radialGradient id="spot" cx="50" cy="34" r="36" gradientUnits="userSpaceOnUse">
      <stop offset="0" stop-color="#FFF8F1" stop-opacity="0.28"/>
      <stop offset="0.55" stop-color="#FFF8F1" stop-opacity="0.08"/>
      <stop offset="1" stop-color="#FFF8F1" stop-opacity="0"/>
    </radialGradient>
  </defs>
  <rect x="6" y="6" width="88" height="88" rx="22" fill="url(#lyraBg)"/>
  <ellipse cx="50" cy="34" rx="34" ry="22" fill="url(#spot)"/>
  <!-- Stage lip -->
  <path d="M26 78h48" stroke="#FFF8F1" stroke-opacity="0.2" stroke-width="3" stroke-linecap="round"/>
  <g transform="translate(1.2 1.5)" opacity="0.12">
    <ellipse cx="42" cy="62" rx="11.5" ry="8.5" transform="rotate(-22 42 62)" fill="#000"/>
    <rect x="50.5" y="26" width="6.2" height="36" rx="3.1" fill="#000"/>
    <path d="M56.7 26c8.2 2.4 13.5 8.2 13.5 15.2 0 4.6-3.6 7.2-7.4 5.4-3.2-1.5-5.4-5-5.4-9.2V26Z" fill="#000"/>
  </g>
  <g fill="#FFF8F1">
    <ellipse cx="42" cy="62" rx="11.5" ry="8.5" transform="rotate(-22 42 62)"/>
    <rect x="50.5" y="26" width="6.2" height="36" rx="3.1"/>
    <path d="M56.7 26c8.2 2.4 13.5 8.2 13.5 15.2 0 4.6-3.6 7.2-7.4 5.4-3.2-1.5-5.4-5-5.4-9.2V26Z"/>
  </g>
</svg>
